<?xml version="1.0" encoding="UTF-8"?>
<svg width="214px" height="172px" viewBox="0 0 214 172" version="1.1" xmlns="http://www.w3.org/2000/svg" xmlns:xlink="http://www.w3.org/1999/xlink">
    <!-- Generator: Sketch 41 (35326) - http://www.bohemiancoding.com/sketch -->
    <title>Untitled</title>
    <desc>Created with Sketch.</desc>
    <defs></defs>
    <g id="Page-1" stroke="none" stroke-width="1" fill="none" fill-rule="evenodd">
        <g id="nativescript-logo" fill="#FFFFFF">
            <g id="Page-1">
                <path d="M198.593,79.752 C194.57,75.75 192.479,70.728 192.313,64.686 L192.313,22 C192.185,15.958 190.111,10.928 186.092,6.909 C182.072,2.886 177.038,0.816 170.997,0.689 L149.685,0.689 L149.685,107.315 L64.315,0.687 L42.999,0.687 C36.957,0.815 31.927,2.885 27.908,6.908 C23.885,10.928 21.815,15.958 21.688,21.998 L21.688,64.686 C21.521,70.728 19.43,75.75 15.407,79.752 C11.387,83.749 6.357,85.832 0.316,85.998 C6.357,86.168 11.388,88.251 15.406,92.248 C19.43,96.25 21.521,101.272 21.687,107.314 L21.687,150 C21.815,156.037 23.885,161.072 27.908,165.091 C31.928,169.111 36.958,171.184 42.998,171.311 L64.315,171.311 L64.315,64.687 L149.685,171.314 L170.997,171.314 C177.038,171.186 182.073,169.112 186.092,165.093 C190.112,161.073 192.185,156.039 192.312,150.003 L192.312,107.315 C192.479,101.273 194.57,96.251 198.593,92.249 C202.613,88.252 207.643,86.169 213.684,85.999 C207.643,85.832 202.612,83.75 198.594,79.753 L198.593,79.752 Z" id="Shape"></path>
            </g>
        </g>
    </g>
</svg>